<svg width="18" height="17" viewBox="0 0 18 17" fill="none" xmlns="http://www.w3.org/2000/svg">
<path d="M9.00002 0.166656C13.6024 0.166656 17.3334 3.89761 17.3334 8.49999C17.3334 13.1023 13.6024 16.8333 9.00002 16.8333C4.39765 16.8333 0.666687 13.1023 0.666687 8.49999C0.666687 3.89761 4.39765 0.166656 9.00002 0.166656ZM9.00002 1.83332C5.31812 1.83332 2.33335 4.81809 2.33335 8.49999C2.33335 12.1819 5.31812 15.1667 9.00002 15.1667C12.6819 15.1667 15.6667 12.1819 15.6667 8.49999C15.6667 4.81809 12.6819 1.83332 9.00002 1.83332ZM12.1941 4.61456C12.3914 4.47606 12.6597 4.49937 12.8302 4.66983C13.0002 4.83986 13.0223 5.10795 12.8823 5.30347C11.0659 7.84124 10.0664 9.20141 9.88394 9.38391C9.39577 9.87199 8.60427 9.87199 8.1161 9.38391C7.62802 8.89574 7.62802 8.10424 8.1161 7.61607C8.42719 7.30507 9.78652 6.30457 12.1941 4.61456ZM13.5834 7.66666C14.0436 7.66666 14.4167 8.03974 14.4167 8.49999C14.4167 8.96024 14.0436 9.33332 13.5834 9.33332C13.1231 9.33332 12.75 8.96024 12.75 8.49999C12.75 8.03974 13.1231 7.66666 13.5834 7.66666ZM4.41669 7.66666C4.87692 7.66666 5.25002 8.03974 5.25002 8.49999C5.25002 8.96024 4.87692 9.33332 4.41669 9.33332C3.95645 9.33332 3.58335 8.96024 3.58335 8.49999C3.58335 8.03974 3.95645 7.66666 4.41669 7.66666ZM6.34837 4.66983C6.6738 4.99527 6.6738 5.52291 6.34837 5.84834C6.02294 6.17377 5.4953 6.17377 5.16986 5.84834C4.84442 5.52291 4.84442 4.99527 5.16986 4.66983C5.4953 4.34439 6.02294 4.34439 6.34837 4.66983ZM9.00002 3.08332C9.46027 3.08332 9.83335 3.45642 9.83335 3.91666C9.83335 4.37689 9.46027 4.74999 9.00002 4.74999C8.53977 4.74999 8.16669 4.37689 8.16669 3.91666C8.16669 3.45642 8.53977 3.08332 9.00002 3.08332Z" fill="#222D44"/>
</svg>
