<svg width="20" height="17" viewBox="0 0 20 17" fill="none" xmlns="http://www.w3.org/2000/svg">
<path d="M3.33333 7.94441L0 5.99999L10 0.166656L20 5.99999V13.0833H18.3333V6.97224L16.6667 7.94441V13.5094L16.4812 13.7387C14.9547 15.6249 12.6182 16.8333 10 16.8333C7.38181 16.8333 5.04524 15.6249 3.51886 13.7387L3.33333 13.5094V7.94441ZM5 8.91666V12.9097C6.22267 14.295 8.00927 15.1667 10 15.1667C11.9907 15.1667 13.7773 14.295 15 12.9097V8.91666L10 11.8333L5 8.91666ZM3.30772 5.99999L10 9.90382L16.6923 5.99999L10 2.09617L3.30772 5.99999Z" fill="#222D44"/>
</svg>
